solid 7in-HDMI-LCD.v1.4
facet normal 0.0 1.0 0.0
  outer loop
    vertex 32.60243906748287 153.87974980468599 12.999999999999998
    vertex 206.60243906748286 153.87974980468599 0.0
    vertex 32.60243906748287 153.87974980468599 0.0
  endloop
endfacet
facet normal 0.0 1.0 0.0
  outer loop
    vertex 206.60243906748286 153.87974980468599 0.0
    vertex 32.60243906748287 153.87974980468599 12.999999999999998
    vertex 206.60243906748286 153.87974980468599 12.999999999999998
  endloop
endfacet
facet normal -0.0 -1.0 -0.0
  outer loop
    vertex 206.60243906748286 19.879749804685996 12.999999999999998
    vertex 32.60243906748287 19.879749804685996 0.0
    vertex 206.60243906748286 19.879749804685996 0.0
  endloop
endfacet
facet normal -0.0 -1.0 -0.0
  outer loop
    vertex 32.60243906748287 19.879749804685996 0.0
    vertex 206.60243906748286 19.879749804685996 12.999999999999998
    vertex 32.60243906748287 19.879749804685996 12.999999999999998
  endloop
endfacet
facet normal 1.0 0.0 0.0
  outer loop
    vertex 206.60243906748286 19.879749804685996 0.0
    vertex 206.60243906748286 38.87974980468599 5.5
    vertex 206.60243906748286 19.879749804685996 12.999999999999998
  endloop
endfacet
facet normal 1.0 0.0 0.0
  outer loop
    vertex 206.60243906748286 38.87974980468599 5.5
    vertex 206.60243906748286 19.879749804685996 0.0
    vertex 206.60243906748286 153.87974980468599 0.0
  endloop
endfacet
facet normal 1.0 0.0 0.0
  outer loop
    vertex 206.60243906748286 38.87974980468599 5.5
    vertex 206.60243906748286 153.87974980468599 0.0
    vertex 206.60243906748286 76.879749804686 5.5
  endloop
endfacet
facet normal 1.0 0.0 0.0
  outer loop
    vertex 206.60243906748286 76.879749804686 5.5
    vertex 206.60243906748286 153.87974980468599 0.0
    vertex 206.60243906748286 76.879749804686 12.999999999999998
  endloop
endfacet
facet normal 1.0 0.0 0.0
  outer loop
    vertex 206.60243906748286 76.879749804686 12.999999999999998
    vertex 206.60243906748286 153.87974980468599 0.0
    vertex 206.60243906748286 153.87974980468599 12.999999999999998
  endloop
endfacet
facet normal 1.0 0.0 0.0
  outer loop
    vertex 206.60243906748286 38.87974980468599 12.999999999999998
    vertex 206.60243906748286 19.879749804685996 12.999999999999998
    vertex 206.60243906748286 38.87974980468599 5.5
  endloop
endfacet
facet normal -1.0 0.0 0.0
  outer loop
    vertex 32.60243906748287 153.87974980468599 12.999999999999998
    vertex 32.60243906748287 19.879749804685996 0.0
    vertex 32.60243906748287 19.879749804685996 12.999999999999998
  endloop
endfacet
facet normal -1.0 0.0 0.0
  outer loop
    vertex 32.60243906748287 19.879749804685996 0.0
    vertex 32.60243906748287 153.87974980468599 12.999999999999998
    vertex 32.60243906748287 153.87974980468599 0.0
  endloop
endfacet
facet normal 0.0 0.0 1.0
  outer loop
    vertex 188.6024390674829 22.879749804686018 5.0
    vertex 49.60243906748287 32.109749804686 5.0
    vertex 49.60243906748287 22.879749804685986 5.0
  endloop
endfacet
facet normal 0.0 0.0 1.0
  outer loop
    vertex 49.60243906748287 32.109749804686 5.0
    vertex 188.6024390674829 22.879749804686018 5.0
    vertex 188.6024390674829 32.109749804686 5.0
  endloop
endfacet
facet normal 0.0 0.0 -1.0
  outer loop
    vertex 32.60243906748287 153.87974980468599 0.0
    vertex 39.602439067482884 124.14974980468601 3.3839597790574766e-14
    vertex 32.60243906748287 19.879749804685996 0.0
  endloop
endfacet
facet normal 0.0 0.0 -1.0
  outer loop
    vertex 39.602439067482884 124.14974980468601 3.3839597790574766e-14
    vertex 32.60243906748287 153.87974980468599 0.0
    vertex 206.60243906748286 153.87974980468599 0.0
  endloop
endfacet
facet normal 0.0 0.0 -1.0
  outer loop
    vertex 32.60243906748287 19.879749804685996 0.0
    vertex 39.602439067482884 124.14974980468601 3.3839597790574766e-14
    vertex 39.60243906748288 37.409749804686 3.3839597790574766e-14
  endloop
endfacet
facet normal 0.0 0.0 -1.0
  outer loop
    vertex 39.602439067482884 124.14974980468601 3.3839597790574766e-14
    vertex 206.60243906748286 153.87974980468599 0.0
    vertex 196.6024390674829 124.14974980468601 3.3839597790574766e-14
  endloop
endfacet
facet normal 0.0 0.0 -1.0
  outer loop
    vertex 196.6024390674829 124.14974980468601 3.3839597790574766e-14
    vertex 206.60243906748286 153.87974980468599 0.0
    vertex 196.6024390674829 37.409749804686 3.3839597790574766e-14
  endloop
endfacet
facet normal 0.0 0.0 -1.0
  outer loop
    vertex 39.60243906748288 37.409749804686 3.3839597790574766e-14
    vertex 206.60243906748286 19.879749804685996 0.0
    vertex 32.60243906748287 19.879749804685996 0.0
  endloop
endfacet
facet normal 0.0 0.0 -1.0
  outer loop
    vertex 206.60243906748286 19.879749804685996 0.0
    vertex 39.60243906748288 37.409749804686 3.3839597790574766e-14
    vertex 196.6024390674829 37.409749804686 3.3839597790574766e-14
  endloop
endfacet
facet normal 0.0 0.0 -1.0
  outer loop
    vertex 206.60243906748286 19.879749804685996 0.0
    vertex 196.6024390674829 37.409749804686 3.3839597790574766e-14
    vertex 206.60243906748286 153.87974980468599 0.0
  endloop
endfacet
facet normal 0.0 1.0 0.0
  outer loop
    vertex 46.60243906748287 32.109749804686 5.0
    vertex 191.60243906748286 32.109749804686 1.9999999999999998
    vertex 46.60243906748287 32.109749804686 1.9999999999999998
  endloop
endfacet
facet normal 0.0 1.0 0.0
  outer loop
    vertex 191.60243906748286 32.109749804686 1.9999999999999998
    vertex 46.60243906748287 32.109749804686 5.0
    vertex 191.60243906748286 32.109749804686 5.0
  endloop
endfacet
facet normal 0.0 1.0 0.0
  outer loop
    vertex 191.60243906748286 32.109749804686 5.0
    vertex 46.60243906748287 32.109749804686 5.0
    vertex 49.60243906748287 32.109749804686 5.0
  endloop
endfacet
facet normal 0.0 1.0 0.0
  outer loop
    vertex 191.60243906748286 32.109749804686 5.0
    vertex 49.60243906748287 32.109749804686 5.0
    vertex 188.6024390674829 32.109749804686 5.0
  endloop
endfacet
facet normal 0.0 -1.0 0.0
  outer loop
    vertex 191.60243906748286 136.24974980468602 4.999999999999998
    vertex 46.60243906748289 136.24974980468602 1.999999999999998
    vertex 191.60243906748286 136.24974980468602 1.999999999999998
  endloop
endfacet
facet normal 0.0 -1.0 0.0
  outer loop
    vertex 46.60243906748289 136.24974980468602 1.999999999999998
    vertex 191.60243906748286 136.24974980468602 4.999999999999998
    vertex 46.60243906748289 136.24974980468602 4.999999999999998
  endloop
endfacet
facet normal 0.0 -1.0 0.0
  outer loop
    vertex 46.60243906748289 136.24974980468602 4.999999999999998
    vertex 191.60243906748286 136.24974980468602 4.999999999999998
    vertex 188.6024390674829 136.24974980468602 4.999999999999998
  endloop
endfacet
facet normal 0.0 -1.0 0.0
  outer loop
    vertex 46.60243906748289 136.24974980468602 4.999999999999998
    vertex 188.6024390674829 136.24974980468602 4.999999999999998
    vertex 49.60243906748289 136.24974980468602 4.999999999999998
  endloop
endfacet
facet normal -7.593433639789987e-17 1.0 2.2443930926094583e-16
  outer loop
    vertex 36.65243906748287 22.879749804685993 12.999999999999998
    vertex 46.60243906748286 22.87974980468599 6.500000000000001
    vertex 36.65243906748287 22.879749804685993 6.500000000000001
  endloop
endfacet
facet normal -7.593433639789987e-17 1.0 2.2443930926094583e-16
  outer loop
    vertex 46.60243906748286 22.87974980468599 6.500000000000001
    vertex 188.6024390674829 22.879749804686018 5.0
    vertex 49.60243906748287 22.879749804685986 5.0
  endloop
endfacet
facet normal -7.593433639789987e-17 1.0 2.2443930926094583e-16
  outer loop
    vertex 188.6024390674829 22.879749804686018 5.0
    vertex 46.60243906748286 22.87974980468599 6.500000000000001
    vertex 191.60243906748286 22.879749804686 6.499999999999999
  endloop
endfacet
facet normal -7.593433639789987e-17 1.0 2.2443930926094583e-16
  outer loop
    vertex 191.60243906748286 22.879749804686 6.499999999999999
    vertex 46.60243906748286 22.87974980468599 6.500000000000001
    vertex 202.50243906748287 22.879749804686 6.499999999999999
  endloop
endfacet
facet normal -7.593433639789987e-17 1.0 2.2443930926094583e-16
  outer loop
    vertex 202.50243906748287 22.879749804686 6.499999999999999
    vertex 46.60243906748286 22.87974980468599 6.500000000000001
    vertex 202.50243906748287 22.879749804686 12.999999999999998
  endloop
endfacet
facet normal -7.593433639789987e-17 1.0 2.2443930926094583e-16
  outer loop
    vertex 202.50243906748287 22.879749804686 12.999999999999998
    vertex 46.60243906748286 22.87974980468599 6.500000000000001
    vertex 36.65243906748287 22.879749804685993 12.999999999999998
  endloop
endfacet
facet normal 1.174986034394957e-16 -1.3954703496377162e-16 1.0
  outer loop
    vertex 49.60243906748289 136.24974980468602 4.999999999999998
    vertex 46.60243906748289 148.879749804686 5.0
    vertex 46.60243906748289 136.24974980468602 4.999999999999998
  endloop
endfacet
facet normal 1.174986034394957e-16 -1.3954703496377162e-16 1.0
  outer loop
    vertex 46.60243906748289 148.879749804686 5.0
    vertex 49.60243906748289 136.24974980468602 4.999999999999998
    vertex 49.60243906748289 148.879749804686 4.999999999999999
  endloop
endfacet
facet normal 0.0 0.0 1.0
  outer loop
    vertex 32.60243906748287 19.879749804685996 12.999999999999998
    vertex 36.65243906748287 22.879749804685993 12.999999999999998
    vertex 32.60243906748287 153.87974980468599 12.999999999999998
  endloop
endfacet
facet normal 0.0 0.0 1.0
  outer loop
    vertex 36.65243906748287 22.879749804685993 12.999999999999998
    vertex 32.60243906748287 19.879749804685996 12.999999999999998
    vertex 206.60243906748286 19.879749804685996 12.999999999999998
  endloop
endfacet
facet normal 0.0 0.0 1.0
  outer loop
    vertex 36.65243906748287 22.879749804685993 12.999999999999998
    vertex 206.60243906748286 19.879749804685996 12.999999999999998
    vertex 202.50243906748287 22.879749804686 12.999999999999998
  endloop
endfacet
facet normal 0.0 0.0 1.0
  outer loop
    vertex 202.50243906748287 22.879749804686 12.999999999999998
    vertex 206.60243906748286 19.879749804685996 12.999999999999998
    vertex 202.50243906748287 38.87974980468599 12.999999999999998
  endloop
endfacet
facet normal 0.0 0.0 1.0
  outer loop
    vertex 202.50243906748287 38.87974980468599 12.999999999999998
    vertex 206.60243906748286 19.879749804685996 12.999999999999998
    vertex 206.60243906748286 38.87974980468599 12.999999999999998
  endloop
endfacet
facet normal 0.0 0.0 1.0
  outer loop
    vertex 191.60243906748286 148.879749804686 12.999999999999998
    vertex 46.60243906748289 149.879749804686 12.999999999999998
    vertex 46.60243906748289 148.879749804686 12.999999999999998
  endloop
endfacet
facet normal 0.0 0.0 1.0
  outer loop
    vertex 206.60243906748286 76.879749804686 12.999999999999998
    vertex 202.5024390674829 148.879749804686 12.999999999999998
    vertex 202.50243906748287 76.879749804686 12.999999999999998
  endloop
endfacet
facet normal 0.0 0.0 1.0
  outer loop
    vertex 202.5024390674829 148.879749804686 12.999999999999998
    vertex 206.60243906748286 76.879749804686 12.999999999999998
    vertex 202.5024390674829 149.879749804686 12.999999999999998
  endloop
endfacet
facet normal 0.0 0.0 1.0
  outer loop
    vertex 32.60243906748287 153.87974980468599 12.999999999999998
    vertex 36.65243906748289 149.879749804686 12.999999999999998
    vertex 206.60243906748286 153.87974980468599 12.999999999999998
  endloop
endfacet
facet normal 0.0 0.0 1.0
  outer loop
    vertex 36.65243906748289 149.879749804686 12.999999999999998
    vertex 32.60243906748287 153.87974980468599 12.999999999999998
    vertex 36.65243906748287 22.879749804685993 12.999999999999998
  endloop
endfacet
facet normal 0.0 0.0 1.0
  outer loop
    vertex 36.65243906748289 149.879749804686 12.999999999999998
    vertex 36.65243906748287 22.879749804685993 12.999999999999998
    vertex 36.65243906748289 148.879749804686 12.999999999999998
  endloop
endfacet
facet normal 0.0 0.0 1.0
  outer loop
    vertex 206.60243906748286 153.87974980468599 12.999999999999998
    vertex 36.65243906748289 149.879749804686 12.999999999999998
    vertex 46.60243906748289 149.879749804686 12.999999999999998
  endloop
endfacet
facet normal 0.0 0.0 1.0
  outer loop
    vertex 206.60243906748286 153.87974980468599 12.999999999999998
    vertex 46.60243906748289 149.879749804686 12.999999999999998
    vertex 191.60243906748286 149.879749804686 12.999999999999998
  endloop
endfacet
facet normal 0.0 0.0 1.0
  outer loop
    vertex 191.60243906748286 149.879749804686 12.999999999999998
    vertex 46.60243906748289 149.879749804686 12.999999999999998
    vertex 191.60243906748286 148.879749804686 12.999999999999998
  endloop
endfacet
facet normal 0.0 0.0 1.0
  outer loop
    vertex 206.60243906748286 153.87974980468599 12.999999999999998
    vertex 191.60243906748286 149.879749804686 12.999999999999998
    vertex 202.5024390674829 149.879749804686 12.999999999999998
  endloop
endfacet
facet normal 0.0 0.0 1.0
  outer loop
    vertex 206.60243906748286 153.87974980468599 12.999999999999998
    vertex 202.5024390674829 149.879749804686 12.999999999999998
    vertex 206.60243906748286 76.879749804686 12.999999999999998
  endloop
endfacet
facet normal 0.0 1.0 -8.12764146457199e-18
  outer loop
    vertex 39.60243906748288 37.409749804686 1.9999999999999998
    vertex 196.6024390674829 37.409749804686 3.3839597790574766e-14
    vertex 39.60243906748288 37.409749804686 3.3839597790574766e-14
  endloop
endfacet
facet normal 0.0 1.0 -8.12764146457199e-18
  outer loop
    vertex 196.6024390674829 37.409749804686 3.3839597790574766e-14
    vertex 39.60243906748288 37.409749804686 1.9999999999999998
    vertex 196.6024390674829 37.409749804686 1.9999999999999998
  endloop
endfacet
facet normal 1.0 -6.502113171657591e-17 5.284684462130395e-34
  outer loop
    vertex 39.602439067482884 124.14974980468601 3.3839597790574766e-14
    vertex 39.60243906748288 37.409749804686 1.9999999999999998
    vertex 39.60243906748288 37.409749804686 3.3839597790574766e-14
  endloop
endfacet
facet normal 1.0 -6.502113171657591e-17 5.284684462130395e-34
  outer loop
    vertex 39.60243906748288 37.409749804686 1.9999999999999998
    vertex 39.602439067482884 124.14974980468601 3.3839597790574766e-14
    vertex 39.602439067482884 124.14974980468601 1.9999999999999991
  endloop
endfacet
facet normal -1.0 -6.649250538211246e-67 -8.181033288925232e-50
  outer loop
    vertex 196.6024390674829 124.14974980468601 1.9999999999999991
    vertex 196.6024390674829 37.409749804686 3.3839597790574766e-14
    vertex 196.6024390674829 37.409749804686 1.9999999999999998
  endloop
endfacet
facet normal -1.0 -6.649250538211246e-67 -8.181033288925232e-50
  outer loop
    vertex 196.6024390674829 37.409749804686 3.3839597790574766e-14
    vertex 196.6024390674829 124.14974980468601 1.9999999999999991
    vertex 196.6024390674829 124.14974980468601 3.3839597790574766e-14
  endloop
endfacet
facet normal 0.0 -1.0 8.12764146457199e-18
  outer loop
    vertex 196.6024390674829 124.14974980468601 1.9999999999999991
    vertex 39.602439067482884 124.14974980468601 3.3839597790574766e-14
    vertex 196.6024390674829 124.14974980468601 3.3839597790574766e-14
  endloop
endfacet
facet normal 0.0 -1.0 8.12764146457199e-18
  outer loop
    vertex 39.602439067482884 124.14974980468601 3.3839597790574766e-14
    vertex 196.6024390674829 124.14974980468601 1.9999999999999991
    vertex 39.602439067482884 124.14974980468601 1.9999999999999991
  endloop
endfacet
facet normal 1.141731174544855e-16 -1.0 -1.8396347868982003e-15
  outer loop
    vertex 191.60243906748286 148.879749804686 6.499999999999999
    vertex 49.60243906748289 148.879749804686 4.999999999999999
    vertex 188.6024390674829 148.87974980468607 4.999999999999998
  endloop
endfacet
facet normal 1.141731174544855e-16 -1.0 -1.8396347868982003e-15
  outer loop
    vertex 49.60243906748289 148.879749804686 4.999999999999999
    vertex 191.60243906748286 148.879749804686 6.499999999999999
    vertex 46.60243906748289 148.879749804686 5.0
  endloop
endfacet
facet normal 1.141731174544855e-16 -1.0 -1.8396347868982003e-15
  outer loop
    vertex 46.60243906748289 148.879749804686 5.0
    vertex 191.60243906748286 148.879749804686 6.499999999999999
    vertex 46.60243906748289 148.879749804686 6.499999999999999
  endloop
endfacet
facet normal 1.141731174544855e-16 -1.0 -1.8396347868982003e-15
  outer loop
    vertex 46.60243906748289 148.879749804686 6.499999999999999
    vertex 191.60243906748286 148.879749804686 6.499999999999999
    vertex 191.60243906748286 148.879749804686 12.999999999999998
  endloop
endfacet
facet normal 1.141731174544855e-16 -1.0 -1.8396347868982003e-15
  outer loop
    vertex 46.60243906748289 148.879749804686 6.499999999999999
    vertex 191.60243906748286 148.879749804686 12.999999999999998
    vertex 46.60243906748289 148.879749804686 12.999999999999998
  endloop
endfacet
facet normal -1.0 0.0 0.0
  outer loop
    vertex 46.60243906748289 149.879749804686 12.999999999999998
    vertex 46.60243906748289 148.879749804686 6.499999999999999
    vertex 46.60243906748289 148.879749804686 12.999999999999998
  endloop
endfacet
facet normal -1.0 0.0 0.0
  outer loop
    vertex 46.60243906748289 148.879749804686 6.499999999999999
    vertex 46.60243906748289 149.879749804686 12.999999999999998
    vertex 46.60243906748289 149.879749804686 6.4999999999999964
  endloop
endfacet
facet normal 0.0 -1.0 0.0
  outer loop
    vertex 46.60243906748289 149.879749804686 12.999999999999998
    vertex 36.65243906748289 149.879749804686 6.4999999999999964
    vertex 46.60243906748289 149.879749804686 6.4999999999999964
  endloop
endfacet
facet normal 0.0 -1.0 0.0
  outer loop
    vertex 36.65243906748289 149.879749804686 6.4999999999999964
    vertex 46.60243906748289 149.879749804686 12.999999999999998
    vertex 36.65243906748289 149.879749804686 12.999999999999998
  endloop
endfacet
facet normal 1.0 0.0 0.0
  outer loop
    vertex 36.65243906748289 149.879749804686 6.4999999999999964
    vertex 36.65243906748289 148.879749804686 12.999999999999998
    vertex 36.65243906748289 148.879749804686 6.499999999999999
  endloop
endfacet
facet normal 1.0 0.0 0.0
  outer loop
    vertex 36.65243906748289 148.879749804686 12.999999999999998
    vertex 36.65243906748289 149.879749804686 6.4999999999999964
    vertex 36.65243906748289 149.879749804686 12.999999999999998
  endloop
endfacet
facet normal -1.0 0.0 0.0
  outer loop
    vertex 202.5024390674829 149.879749804686 12.999999999999998
    vertex 202.5024390674829 148.879749804686 6.500000000000001
    vertex 202.5024390674829 148.879749804686 12.999999999999998
  endloop
endfacet
facet normal -1.0 0.0 0.0
  outer loop
    vertex 202.5024390674829 148.879749804686 6.500000000000001
    vertex 202.5024390674829 149.879749804686 12.999999999999998
    vertex 202.5024390674829 149.879749804686 6.500000000000001
  endloop
endfacet
facet normal 0.0 -1.0 0.0
  outer loop
    vertex 202.5024390674829 149.879749804686 12.999999999999998
    vertex 191.60243906748286 149.879749804686 6.500000000000001
    vertex 202.5024390674829 149.879749804686 6.500000000000001
  endloop
endfacet
facet normal 0.0 -1.0 0.0
  outer loop
    vertex 191.60243906748286 149.879749804686 6.500000000000001
    vertex 202.5024390674829 149.879749804686 12.999999999999998
    vertex 191.60243906748286 149.879749804686 12.999999999999998
  endloop
endfacet
facet normal 1.0 0.0 0.0
  outer loop
    vertex 191.60243906748286 149.879749804686 6.500000000000001
    vertex 191.60243906748286 148.879749804686 12.999999999999998
    vertex 191.60243906748286 148.879749804686 6.499999999999999
  endloop
endfacet
facet normal 1.0 0.0 0.0
  outer loop
    vertex 191.60243906748286 148.879749804686 12.999999999999998
    vertex 191.60243906748286 149.879749804686 6.500000000000001
    vertex 191.60243906748286 149.879749804686 12.999999999999998
  endloop
endfacet
facet normal -1.0 1.1423378422000374e-16 7.534706577185581e-16
  outer loop
    vertex 202.5024390674829 148.879749804686 12.999999999999998
    vertex 202.50243906748287 76.879749804686 5.5
    vertex 202.50243906748287 76.879749804686 12.999999999999998
  endloop
endfacet
facet normal -1.0 1.1423378422000374e-16 7.534706577185581e-16
  outer loop
    vertex 202.50243906748287 76.879749804686 5.5
    vertex 202.5024390674829 148.879749804686 12.999999999999998
    vertex 202.50243906748287 136.24974980468602 6.499999999999998
  endloop
endfacet
facet normal -1.0 1.1423378422000374e-16 7.534706577185581e-16
  outer loop
    vertex 202.50243906748287 136.24974980468602 6.499999999999998
    vertex 202.5024390674829 148.879749804686 12.999999999999998
    vertex 202.5024390674829 148.879749804686 6.500000000000001
  endloop
endfacet
facet normal -1.0 1.1423378422000374e-16 7.534706577185581e-16
  outer loop
    vertex 202.50243906748287 38.87974980468599 12.999999999999998
    vertex 202.50243906748287 22.879749804686 6.499999999999999
    vertex 202.50243906748287 22.879749804686 12.999999999999998
  endloop
endfacet
facet normal -1.0 1.1423378422000374e-16 7.534706577185581e-16
  outer loop
    vertex 202.50243906748287 22.879749804686 6.499999999999999
    vertex 202.50243906748287 38.87974980468599 12.999999999999998
    vertex 202.50243906748287 32.109749804686 6.499999999999999
  endloop
endfacet
facet normal -1.0 1.1423378422000374e-16 7.534706577185581e-16
  outer loop
    vertex 202.50243906748287 32.109749804686 6.499999999999999
    vertex 202.50243906748287 38.87974980468599 12.999999999999998
    vertex 202.50243906748287 32.109749804686 1.9999999999999998
  endloop
endfacet
facet normal -1.0 1.1423378422000374e-16 7.534706577185581e-16
  outer loop
    vertex 202.50243906748287 32.109749804686 1.9999999999999998
    vertex 202.50243906748287 38.87974980468599 12.999999999999998
    vertex 202.50243906748287 38.87974980468599 5.5
  endloop
endfacet
facet normal -1.0 1.1423378422000374e-16 7.534706577185581e-16
  outer loop
    vertex 202.50243906748287 32.109749804686 1.9999999999999998
    vertex 202.50243906748287 38.87974980468599 5.5
    vertex 202.50243906748287 136.24974980468602 1.9999999999999991
  endloop
endfacet
facet normal -1.0 1.1423378422000374e-16 7.534706577185581e-16
  outer loop
    vertex 202.50243906748287 136.24974980468602 1.9999999999999991
    vertex 202.50243906748287 38.87974980468599 5.5
    vertex 202.50243906748287 76.879749804686 5.5
  endloop
endfacet
facet normal -1.0 1.1423378422000374e-16 7.534706577185581e-16
  outer loop
    vertex 202.50243906748287 136.24974980468602 1.9999999999999991
    vertex 202.50243906748287 76.879749804686 5.5
    vertex 202.50243906748287 136.24974980468602 6.499999999999998
  endloop
endfacet
facet normal 1.0 -1.942780492174679e-16 4.0964053788489295e-17
  outer loop
    vertex 36.65243906748289 136.24974980468602 1.9999999999999991
    vertex 36.65243906748287 32.109749804686 6.500000000000001
    vertex 36.65243906748287 32.109749804686 1.9999999999999998
  endloop
endfacet
facet normal 1.0 -1.942780492174679e-16 4.0964053788489295e-17
  outer loop
    vertex 36.65243906748287 32.109749804686 6.500000000000001
    vertex 36.65243906748287 22.879749804685993 12.999999999999998
    vertex 36.65243906748287 22.879749804685993 6.500000000000001
  endloop
endfacet
facet normal 1.0 -1.942780492174679e-16 4.0964053788489295e-17
  outer loop
    vertex 36.65243906748287 22.879749804685993 12.999999999999998
    vertex 36.65243906748287 32.109749804686 6.500000000000001
    vertex 36.65243906748289 148.879749804686 12.999999999999998
  endloop
endfacet
facet normal 1.0 -1.942780492174679e-16 4.0964053788489295e-17
  outer loop
    vertex 36.65243906748289 148.879749804686 12.999999999999998
    vertex 36.65243906748287 32.109749804686 6.500000000000001
    vertex 36.65243906748289 136.24974980468602 6.4999999999999964
  endloop
endfacet
facet normal 1.0 -1.942780492174679e-16 4.0964053788489295e-17
  outer loop
    vertex 36.65243906748289 136.24974980468602 6.4999999999999964
    vertex 36.65243906748287 32.109749804686 6.500000000000001
    vertex 36.65243906748289 136.24974980468602 1.9999999999999991
  endloop
endfacet
facet normal 1.0 -1.942780492174679e-16 4.0964053788489295e-17
  outer loop
    vertex 36.65243906748289 148.879749804686 12.999999999999998
    vertex 36.65243906748289 136.24974980468602 6.4999999999999964
    vertex 36.65243906748289 148.879749804686 6.499999999999999
  endloop
endfacet
facet normal 0.0 0.0 1.0
  outer loop
    vertex 206.60243906748286 38.87974980468599 5.5
    vertex 202.50243906748287 76.879749804686 5.5
    vertex 202.50243906748287 38.87974980468599 5.5
  endloop
endfacet
facet normal 0.0 0.0 1.0
  outer loop
    vertex 202.50243906748287 76.879749804686 5.5
    vertex 206.60243906748286 38.87974980468599 5.5
    vertex 206.60243906748286 76.879749804686 5.5
  endloop
endfacet
facet normal -0.0 -1.0 -0.0
  outer loop
    vertex 206.60243906748286 76.879749804686 12.999999999999998
    vertex 202.50243906748287 76.879749804686 5.5
    vertex 206.60243906748286 76.879749804686 5.5
  endloop
endfacet
facet normal -0.0 -1.0 -0.0
  outer loop
    vertex 202.50243906748287 76.879749804686 5.5
    vertex 206.60243906748286 76.879749804686 12.999999999999998
    vertex 202.50243906748287 76.879749804686 12.999999999999998
  endloop
endfacet
facet normal 1.375593406120928e-15 1.0 0.0
  outer loop
    vertex 202.50243906748287 38.87974980468599 12.999999999999998
    vertex 206.60243906748286 38.87974980468599 5.5
    vertex 202.50243906748287 38.87974980468599 5.5
  endloop
endfacet
facet normal 1.375593406120928e-15 1.0 0.0
  outer loop
    vertex 206.60243906748286 38.87974980468599 5.5
    vertex 202.50243906748287 38.87974980468599 12.999999999999998
    vertex 206.60243906748286 38.87974980468599 12.999999999999998
  endloop
endfacet
facet normal 0.0 1.0 0.0
  outer loop
    vertex 191.60243906748286 32.109749804686 5.0
    vertex 202.50243906748287 32.109749804686 1.9999999999999998
    vertex 191.60243906748286 32.109749804686 1.9999999999999998
  endloop
endfacet
facet normal 0.0 1.0 0.0
  outer loop
    vertex 202.50243906748287 32.109749804686 1.9999999999999998
    vertex 191.60243906748286 32.109749804686 5.0
    vertex 202.50243906748287 32.109749804686 6.499999999999999
  endloop
endfacet
facet normal 0.0 1.0 0.0
  outer loop
    vertex 202.50243906748287 32.109749804686 6.499999999999999
    vertex 191.60243906748286 32.109749804686 5.0
    vertex 191.60243906748286 32.109749804686 6.499999999999999
  endloop
endfacet
facet normal 0.0 0.0 1.0
  outer loop
    vertex 202.50243906748287 22.879749804686 6.499999999999999
    vertex 191.60243906748286 32.109749804686 6.499999999999999
    vertex 191.60243906748286 22.879749804686 6.499999999999999
  endloop
endfacet
facet normal 0.0 0.0 1.0
  outer loop
    vertex 191.60243906748286 32.109749804686 6.499999999999999
    vertex 202.50243906748287 22.879749804686 6.499999999999999
    vertex 202.50243906748287 32.109749804686 6.499999999999999
  endloop
endfacet
facet normal -1.0 0.0 0.0
  outer loop
    vertex 191.60243906748286 32.109749804686 6.499999999999999
    vertex 191.60243906748286 22.879749804686 5.0
    vertex 191.60243906748286 22.879749804686 6.499999999999999
  endloop
endfacet
facet normal -1.0 0.0 0.0
  outer loop
    vertex 191.60243906748286 22.879749804686 5.0
    vertex 191.60243906748286 32.109749804686 6.499999999999999
    vertex 191.60243906748286 32.109749804686 5.0
  endloop
endfacet
facet normal 0.0 1.0 0.0
  outer loop
    vertex 36.65243906748287 32.109749804686 6.500000000000001
    vertex 46.60243906748287 32.109749804686 1.9999999999999998
    vertex 36.65243906748287 32.109749804686 1.9999999999999998
  endloop
endfacet
facet normal 0.0 1.0 0.0
  outer loop
    vertex 46.60243906748287 32.109749804686 1.9999999999999998
    vertex 36.65243906748287 32.109749804686 6.500000000000001
    vertex 46.60243906748287 32.109749804686 5.0
  endloop
endfacet
facet normal 0.0 1.0 0.0
  outer loop
    vertex 46.60243906748287 32.109749804686 5.0
    vertex 36.65243906748287 32.109749804686 6.500000000000001
    vertex 46.60243906748287 32.109749804686 6.499999999999999
  endloop
endfacet
facet normal 7.08534292097462e-17 7.638045727377831e-17 1.0
  outer loop
    vertex 46.60243906748286 22.87974980468599 6.500000000000001
    vertex 36.65243906748287 32.109749804686 6.500000000000001
    vertex 36.65243906748287 22.879749804685993 6.500000000000001
  endloop
endfacet
facet normal 7.08534292097462e-17 7.638045727377831e-17 1.0
  outer loop
    vertex 36.65243906748287 32.109749804686 6.500000000000001
    vertex 46.60243906748286 22.87974980468599 6.500000000000001
    vertex 46.60243906748287 32.109749804686 6.499999999999999
  endloop
endfacet
facet normal 1.0 -6.110436581902264e-16 -8.472019624393384e-32
  outer loop
    vertex 46.60243906748287 32.109749804686 5.0
    vertex 46.60243906748286 22.87974980468599 6.500000000000001
    vertex 46.60243906748286 22.87974980468599 5.000000000000001
  endloop
endfacet
facet normal 1.0 -6.110436581902264e-16 -8.472019624393384e-32
  outer loop
    vertex 46.60243906748286 22.87974980468599 6.500000000000001
    vertex 46.60243906748287 32.109749804686 5.0
    vertex 46.60243906748287 32.109749804686 6.499999999999999
  endloop
endfacet
facet normal 0.0 -1.0 0.0
  outer loop
    vertex 46.60243906748289 136.24974980468602 4.999999999999998
    vertex 36.65243906748289 136.24974980468602 1.9999999999999991
    vertex 46.60243906748289 136.24974980468602 1.999999999999998
  endloop
endfacet
facet normal 0.0 -1.0 0.0
  outer loop
    vertex 36.65243906748289 136.24974980468602 1.9999999999999991
    vertex 46.60243906748289 136.24974980468602 4.999999999999998
    vertex 36.65243906748289 136.24974980468602 6.4999999999999964
  endloop
endfacet
facet normal 0.0 -1.0 0.0
  outer loop
    vertex 36.65243906748289 136.24974980468602 6.4999999999999964
    vertex 46.60243906748289 136.24974980468602 4.999999999999998
    vertex 46.60243906748289 136.24974980468602 6.499999999999998
  endloop
endfacet
facet normal -7.085342920974615e-17 -1.6745644195652595e-16 1.0
  outer loop
    vertex 46.60243906748289 136.24974980468602 6.499999999999998
    vertex 36.65243906748289 148.879749804686 6.499999999999999
    vertex 36.65243906748289 136.24974980468602 6.4999999999999964
  endloop
endfacet
facet normal -7.085342920974615e-17 -1.6745644195652595e-16 1.0
  outer loop
    vertex 36.65243906748289 148.879749804686 6.499999999999999
    vertex 46.60243906748289 136.24974980468602 6.499999999999998
    vertex 46.60243906748289 148.879749804686 6.499999999999999
  endloop
endfacet
facet normal -1.0 0.0 0.0
  outer loop
    vertex 46.60243906748289 148.879749804686 6.499999999999999
    vertex 46.60243906748289 136.24974980468602 4.999999999999998
    vertex 46.60243906748289 136.24974980468602 6.499999999999998
  endloop
endfacet
facet normal -1.0 0.0 0.0
  outer loop
    vertex 46.60243906748289 136.24974980468602 4.999999999999998
    vertex 46.60243906748289 148.879749804686 6.499999999999999
    vertex 46.60243906748289 148.879749804686 5.0
  endloop
endfacet
facet normal 1.4496583178450363e-44 2.8199664825479026e-15 1.0
  outer loop
    vertex 46.60243906748289 148.879749804686 6.499999999999999
    vertex 36.65243906748289 149.879749804686 6.4999999999999964
    vertex 36.65243906748289 148.879749804686 6.499999999999999
  endloop
endfacet
facet normal 1.4496583178450363e-44 2.8199664825479026e-15 1.0
  outer loop
    vertex 36.65243906748289 149.879749804686 6.4999999999999964
    vertex 46.60243906748289 148.879749804686 6.499999999999999
    vertex 46.60243906748289 149.879749804686 6.4999999999999964
  endloop
endfacet
facet normal -6.467813033366722e-17 -7.049916206369755e-16 1.0
  outer loop
    vertex 202.5024390674829 148.879749804686 6.500000000000001
    vertex 191.60243906748286 149.879749804686 6.500000000000001
    vertex 191.60243906748286 148.879749804686 6.499999999999999
  endloop
endfacet
facet normal -6.467813033366722e-17 -7.049916206369755e-16 1.0
  outer loop
    vertex 191.60243906748286 149.879749804686 6.500000000000001
    vertex 202.5024390674829 148.879749804686 6.500000000000001
    vertex 202.5024390674829 149.879749804686 6.500000000000001
  endloop
endfacet
facet normal -1.0350076370564755e-20 1.1846892031061117e-17 1.0
  outer loop
    vertex 36.65243906748287 32.109749804686 1.9999999999999998
    vertex 39.60243906748288 37.409749804686 1.9999999999999998
    vertex 36.65243906748289 136.24974980468602 1.9999999999999991
  endloop
endfacet
facet normal -1.0350076370564755e-20 1.1846892031061117e-17 1.0
  outer loop
    vertex 39.60243906748288 37.409749804686 1.9999999999999998
    vertex 36.65243906748287 32.109749804686 1.9999999999999998
    vertex 46.60243906748287 32.109749804686 1.9999999999999998
  endloop
endfacet
facet normal -1.0350076370564755e-20 1.1846892031061117e-17 1.0
  outer loop
    vertex 39.60243906748288 37.409749804686 1.9999999999999998
    vertex 46.60243906748287 32.109749804686 1.9999999999999998
    vertex 196.6024390674829 37.409749804686 1.9999999999999998
  endloop
endfacet
facet normal -1.0350076370564755e-20 1.1846892031061117e-17 1.0
  outer loop
    vertex 196.6024390674829 37.409749804686 1.9999999999999998
    vertex 46.60243906748287 32.109749804686 1.9999999999999998
    vertex 191.60243906748286 32.109749804686 1.9999999999999998
  endloop
endfacet
facet normal -1.0350076370564755e-20 1.1846892031061117e-17 1.0
  outer loop
    vertex 196.6024390674829 37.409749804686 1.9999999999999998
    vertex 191.60243906748286 32.109749804686 1.9999999999999998
    vertex 202.50243906748287 32.109749804686 1.9999999999999998
  endloop
endfacet
facet normal -1.0350076370564755e-20 1.1846892031061117e-17 1.0
  outer loop
    vertex 196.6024390674829 37.409749804686 1.9999999999999998
    vertex 202.50243906748287 32.109749804686 1.9999999999999998
    vertex 196.6024390674829 124.14974980468601 1.9999999999999991
  endloop
endfacet
facet normal -1.0350076370564755e-20 1.1846892031061117e-17 1.0
  outer loop
    vertex 36.65243906748289 136.24974980468602 1.9999999999999991
    vertex 39.602439067482884 124.14974980468601 1.9999999999999991
    vertex 46.60243906748289 136.24974980468602 1.999999999999998
  endloop
endfacet
facet normal -1.0350076370564755e-20 1.1846892031061117e-17 1.0
  outer loop
    vertex 39.602439067482884 124.14974980468601 1.9999999999999991
    vertex 36.65243906748289 136.24974980468602 1.9999999999999991
    vertex 39.60243906748288 37.409749804686 1.9999999999999998
  endloop
endfacet
facet normal -1.0350076370564755e-20 1.1846892031061117e-17 1.0
  outer loop
    vertex 46.60243906748289 136.24974980468602 1.999999999999998
    vertex 39.602439067482884 124.14974980468601 1.9999999999999991
    vertex 196.6024390674829 124.14974980468601 1.9999999999999991
  endloop
endfacet
facet normal -1.0350076370564755e-20 1.1846892031061117e-17 1.0
  outer loop
    vertex 46.60243906748289 136.24974980468602 1.999999999999998
    vertex 196.6024390674829 124.14974980468601 1.9999999999999991
    vertex 191.60243906748286 136.24974980468602 1.999999999999998
  endloop
endfacet
facet normal -1.0350076370564755e-20 1.1846892031061117e-17 1.0
  outer loop
    vertex 191.60243906748286 136.24974980468602 1.999999999999998
    vertex 196.6024390674829 124.14974980468601 1.9999999999999991
    vertex 202.50243906748287 136.24974980468602 1.9999999999999991
  endloop
endfacet
facet normal -1.0350076370564755e-20 1.1846892031061117e-17 1.0
  outer loop
    vertex 202.50243906748287 136.24974980468602 1.9999999999999991
    vertex 196.6024390674829 124.14974980468601 1.9999999999999991
    vertex 202.50243906748287 32.109749804686 1.9999999999999998
  endloop
endfacet
facet normal 0.0 -1.0 0.0
  outer loop
    vertex 202.50243906748287 136.24974980468602 1.9999999999999991
    vertex 191.60243906748286 136.24974980468602 4.999999999999998
    vertex 191.60243906748286 136.24974980468602 1.999999999999998
  endloop
endfacet
facet normal 0.0 -1.0 0.0
  outer loop
    vertex 191.60243906748286 136.24974980468602 4.999999999999998
    vertex 202.50243906748287 136.24974980468602 1.9999999999999991
    vertex 202.50243906748287 136.24974980468602 6.499999999999998
  endloop
endfacet
facet normal 0.0 -1.0 0.0
  outer loop
    vertex 191.60243906748286 136.24974980468602 4.999999999999998
    vertex 202.50243906748287 136.24974980468602 6.499999999999998
    vertex 191.60243906748286 136.24974980468602 6.499999999999998
  endloop
endfacet
facet normal -6.467813033366736e-17 -1.6745644195652588e-16 1.0
  outer loop
    vertex 202.50243906748287 136.24974980468602 6.499999999999998
    vertex 191.60243906748286 148.879749804686 6.499999999999999
    vertex 191.60243906748286 136.24974980468602 6.499999999999998
  endloop
endfacet
facet normal -6.467813033366736e-17 -1.6745644195652588e-16 1.0
  outer loop
    vertex 191.60243906748286 148.879749804686 6.499999999999999
    vertex 202.50243906748287 136.24974980468602 6.499999999999998
    vertex 202.5024390674829 148.879749804686 6.500000000000001
  endloop
endfacet
facet normal -1.0 0.0 0.0
  outer loop
    vertex 191.60243906748286 148.879749804686 6.499999999999999
    vertex 191.60243906748286 136.24974980468602 4.999999999999998
    vertex 191.60243906748286 136.24974980468602 6.499999999999998
  endloop
endfacet
facet normal -1.0 0.0 0.0
  outer loop
    vertex 191.60243906748286 136.24974980468602 4.999999999999998
    vertex 191.60243906748286 148.879749804686 6.499999999999999
    vertex 191.60243906748286 148.879749804686 5.0
  endloop
endfacet
facet normal 0.0 -1.0 0.0
  outer loop
    vertex 46.60243906748289 136.24974980468602 6.499999999999998
    vertex 46.60243906748289 136.24974980468602 4.999999999999998
    vertex 49.60243906748289 136.24974980468602 4.999999999999998
  endloop
endfacet
facet normal 0.0 1.0 0.0
  outer loop
    vertex 46.60243906748289 152.80874580468605 6.499999999999998
    vertex 49.60243906748289 152.80874580468605 4.999999999999998
    vertex 46.60243906748289 152.80874580468605 4.999999999999998
  endloop
endfacet
facet normal 0.44721359549995804 1.3676438497485723e-17 0.8944271909999159
  outer loop
    vertex 49.60243906748289 136.24974980468602 4.999999999999998
    vertex 46.60243906748289 148.879749804686 6.499999999999999
    vertex 46.60243906748289 136.24974980468602 6.499999999999998
  endloop
endfacet
facet normal 0.44721359549995804 1.3676438497485723e-17 0.8944271909999159
  outer loop
    vertex 46.60243906748289 148.879749804686 6.499999999999999
    vertex 49.60243906748289 136.24974980468602 4.999999999999998
    vertex 46.60243906748289 149.879749804686 6.4999999999999964
  endloop
endfacet
facet normal 0.44721359549995804 1.3676438497485723e-17 0.8944271909999159
  outer loop
    vertex 46.60243906748289 149.879749804686 6.4999999999999964
    vertex 49.60243906748289 136.24974980468602 4.999999999999998
    vertex 46.60243906748289 152.80874580468605 6.499999999999998
  endloop
endfacet
facet normal 0.44721359549995804 1.3676438497485723e-17 0.8944271909999159
  outer loop
    vertex 46.60243906748289 152.80874580468605 6.499999999999998
    vertex 49.60243906748289 136.24974980468602 4.999999999999998
    vertex 49.60243906748289 148.879749804686 4.999999999999999
  endloop
endfacet
facet normal 0.44721359549995804 1.3676438497485723e-17 0.8944271909999159
  outer loop
    vertex 49.60243906748289 152.80874580468605 4.999999999999998
    vertex 46.60243906748289 152.80874580468605 6.499999999999998
    vertex 49.60243906748289 148.879749804686 4.999999999999999
  endloop
endfacet
facet normal -1.0 0.0 0.0
  outer loop
    vertex 46.60243906748289 149.879749804686 6.4999999999999964
    vertex 46.60243906748289 148.879749804686 5.0
    vertex 46.60243906748289 148.879749804686 6.499999999999999
  endloop
endfacet
facet normal -1.0 0.0 0.0
  outer loop
    vertex 46.60243906748289 148.879749804686 5.0
    vertex 46.60243906748289 149.879749804686 6.4999999999999964
    vertex 46.60243906748289 152.80874580468605 4.999999999999998
  endloop
endfacet
facet normal -1.0 0.0 0.0
  outer loop
    vertex 46.60243906748289 152.80874580468605 4.999999999999998
    vertex 46.60243906748289 149.879749804686 6.4999999999999964
    vertex 46.60243906748289 152.80874580468605 6.499999999999998
  endloop
endfacet
facet normal -1.1749860343949576e-16 -4.485825517746566e-16 -1.0
  outer loop
    vertex 49.60243906748289 152.80874580468605 4.999999999999998
    vertex 46.60243906748289 148.879749804686 5.0
    vertex 46.60243906748289 152.80874580468605 4.999999999999998
  endloop
endfacet
facet normal -1.1749860343949576e-16 -4.485825517746566e-16 -1.0
  outer loop
    vertex 46.60243906748289 148.879749804686 5.0
    vertex 49.60243906748289 152.80874580468605 4.999999999999998
    vertex 49.60243906748289 148.879749804686 4.999999999999999
  endloop
endfacet
facet normal 1.133513138969168e-18 -9.303135664251393e-17 1.0
  outer loop
    vertex 49.60243906748289 136.24974980468602 4.999999999999998
    vertex 188.6024390674829 148.87974980468607 4.999999999999998
    vertex 49.60243906748289 148.879749804686 4.999999999999999
  endloop
endfacet
facet normal 1.133513138969168e-18 -9.303135664251393e-17 1.0
  outer loop
    vertex 188.6024390674829 148.87974980468607 4.999999999999998
    vertex 49.60243906748289 136.24974980468602 4.999999999999998
    vertex 188.6024390674829 136.24974980468602 4.999999999999998
  endloop
endfacet
facet normal 0.0 -1.0 0.0
  outer loop
    vertex 191.60243906748286 136.24974980468602 6.499999999999998
    vertex 188.6024390674829 136.24974980468602 4.999999999999998
    vertex 191.60243906748286 136.24974980468602 4.999999999999998
  endloop
endfacet
facet normal -0.4472135954999588 -5.0202572088255875e-17 0.8944271909999155
  outer loop
    vertex 191.60243906748286 136.24974980468602 6.499999999999998
    vertex 188.6024390674829 148.87974980468607 4.999999999999998
    vertex 188.6024390674829 136.24974980468602 4.999999999999998
  endloop
endfacet
facet normal -0.4472135954999588 -5.0202572088255875e-17 0.8944271909999155
  outer loop
    vertex 188.6024390674829 148.87974980468607 4.999999999999998
    vertex 191.60243906748286 136.24974980468602 6.499999999999998
    vertex 191.60243906748286 148.879749804686 6.499999999999999
  endloop
endfacet
facet normal -3.5249581031848876e-16 -8.372822097826252e-17 1.0
  outer loop
    vertex 191.60243906748286 136.24974980468602 4.999999999999998
    vertex 188.6024390674829 148.87974980468607 4.999999999999998
    vertex 188.6024390674829 136.24974980468602 4.999999999999998
  endloop
endfacet
facet normal -3.5249581031848876e-16 -8.372822097826252e-17 1.0
  outer loop
    vertex 188.6024390674829 148.87974980468607 4.999999999999998
    vertex 191.60243906748286 136.24974980468602 4.999999999999998
    vertex 191.60243906748286 148.879749804686 5.0
  endloop
endfacet
facet normal 0.0 1.0 0.0
  outer loop
    vertex 46.60243906748287 32.109749804686 6.499999999999999
    vertex 49.60243906748287 32.109749804686 5.0
    vertex 46.60243906748287 32.109749804686 5.0
  endloop
endfacet
facet normal 0.4472135954999576 -7.637524864901108e-17 0.894427190999916
  outer loop
    vertex 49.60243906748287 22.879749804685986 5.0
    vertex 46.60243906748287 32.109749804686 6.499999999999999
    vertex 46.60243906748286 22.87974980468599 6.500000000000001
  endloop
endfacet
facet normal 0.4472135954999576 -7.637524864901108e-17 0.894427190999916
  outer loop
    vertex 46.60243906748287 32.109749804686 6.499999999999999
    vertex 49.60243906748287 22.879749804685986 5.0
    vertex 49.60243906748287 32.109749804686 5.0
  endloop
endfacet
facet normal 1.1749860343949576e-16 3.819022863688909e-17 1.0
  outer loop
    vertex 49.60243906748287 22.879749804685986 5.0
    vertex 46.60243906748287 32.109749804686 5.0
    vertex 46.60243906748286 22.87974980468599 5.000000000000001
  endloop
endfacet
facet normal 1.1749860343949576e-16 3.819022863688909e-17 1.0
  outer loop
    vertex 46.60243906748287 32.109749804686 5.0
    vertex 49.60243906748287 22.879749804685986 5.0
    vertex 49.60243906748287 32.109749804686 5.0
  endloop
endfacet
facet normal 0.0 1.0 0.0
  outer loop
    vertex 191.60243906748286 32.109749804686 6.499999999999999
    vertex 191.60243906748286 32.109749804686 5.0
    vertex 188.6024390674829 32.109749804686 5.0
  endloop
endfacet
facet normal -0.4472135954999584 -5.8750191268472126e-18 0.8944271909999156
  outer loop
    vertex 191.60243906748286 22.879749804686 6.499999999999999
    vertex 188.6024390674829 32.109749804686 5.0
    vertex 188.6024390674829 22.879749804686018 5.0
  endloop
endfacet
facet normal -0.4472135954999584 -5.8750191268472126e-18 0.8944271909999156
  outer loop
    vertex 188.6024390674829 32.109749804686 5.0
    vertex 191.60243906748286 22.879749804686 6.499999999999999
    vertex 191.60243906748286 32.109749804686 6.499999999999999
  endloop
endfacet
facet normal 0.0 0.0 1.0
  outer loop
    vertex 191.60243906748286 22.879749804686 5.0
    vertex 188.6024390674829 32.109749804686 5.0
    vertex 188.6024390674829 22.879749804686018 5.0
  endloop
endfacet
facet normal 0.0 0.0 1.0
  outer loop
    vertex 188.6024390674829 32.109749804686 5.0
    vertex 191.60243906748286 22.879749804686 5.0
    vertex 191.60243906748286 32.109749804686 5.0
  endloop
endfacet
endsolid 7in-HDMI-LCD.v1.4
